<?xml version="1.0" encoding="UTF-8"?><svg id="Layer_1" xmlns="http://www.w3.org/2000/svg" viewBox="0 0 1233.95 1000"><defs><style>.cls-1{fill:#fff;}.cls-2{fill:#fff;}</style></defs><path class="cls-1" d="M93.38,432.09v-250.78c0-53.61,39.31-89.95,97.69-89.95s97.69,36.34,97.69,89.95v86.97h-75.06v-86.37c0-13.7-8.94-22.04-22.64-22.04s-22.64,8.34-22.64,22.04v250.19c0,13.7,8.94,22.04,22.64,22.04s22.64-8.34,22.64-22.04v-92.33h75.06v92.33c0,54.21-39.31,90.54-97.69,90.54s-97.69-36.34-97.69-90.54Z"/><path class="cls-1" d="M320.33,98.51h75.06v348.47h63.14v68.5h-138.2V98.51Z"/><path class="cls-2" d="M479.97,98.51h75.06v416.98h-75.06V98.51Z"/><path class="cls-2" d="M588.98,98.51h134.03l19.61,276.4v66.12h14.38v-66.12l19.61-276.4h131.65v416.98h-75.06V215.86l.6-33.95h-13.18l-1.19,33.95-25.61,299.63h-90.4l-26.21-299.63-.6-33.95h-13.18l.6,33.95v299.63h-75.06V98.51Z"/><path class="cls-1" d="M942.21,98.51h106.03c53.02,0,88.76,32.76,88.76,81.61v56.59c0,25.02-11.32,50.63-34.55,61.36v3.57c25.02,10.72,38.12,37.53,38.12,64.33v67.91c0,48.85-35.15,81.61-88.76,81.61h-109.61V98.51ZM1017.26,167.01v104.84h22.04c13.7,0,22.64-8.94,22.64-22.64v-60.16c0-13.7-8.94-22.04-22.64-22.04h-22.04ZM1017.26,335.59v111.39h26.21c13.1,0,22.04-8.34,22.04-22.04v-66.72c0-13.7-8.94-22.64-22.04-22.64h-26.21Z"/><path class="cls-2" d="M92.42,834.57v-50.68h61.4v50.68c0,11.21,7.31,18.03,18.03,18.03s18.52-6.82,18.52-18.03v-39.47c0-40.44-96.97-46.29-96.97-124.75v-40.93c0-44.34,31.19-73.58,78.45-73.58s78.94,29.24,78.94,73.58v45.32h-61.4v-45.81c0-10.23-6.82-17.05-17.54-17.05s-17.05,6.33-17.05,17.05v34.11c0,40.93,96.97,46.29,96.97,124.75v46.78c0,44.34-32.16,74.07-79.92,74.07s-79.43-29.72-79.43-74.07Z"/><path class="cls-2" d="M299.51,617.73h-35.08v-56.04h131.57v56.04h-35.08v285.06h-61.4v-285.06Z"/><path class="cls-2" d="M414.51,561.69h85.28c44.34,0,74.07,27.29,74.07,68.71v75.53c0,22.42-9.26,40.93-25.34,52.63l31.67,144.24h-61.89l-25.34-130.11h-17.05v130.11h-61.4v-341.1ZM475.91,617.73v102.33h18.03c11.21,0,18.52-6.82,18.52-18.03v-66.27c0-11.21-7.31-18.03-18.52-18.03h-18.03Z"/><path class="cls-2" d="M594.32,834.57v-205.15c0-43.86,32.16-73.58,79.91-73.58s79.91,29.72,79.91,73.58v205.15c0,44.34-32.16,74.07-79.91,74.07s-79.91-29.72-79.91-74.07ZM692.75,834.57v-204.66c0-11.21-7.31-18.03-18.52-18.03s-18.52,6.82-18.52,18.03v204.66c0,11.21,7.31,18.03,18.52,18.03s18.52-6.82,18.52-18.03Z"/><path class="cls-2" d="M780.46,561.69h67.61l35.08,161.78,4.87,42.88h11.33l-5.36-42.88v-161.78h61.4v341.1h-67.12l-35.08-161.78-5.36-42.88h-11.33l5.36,42.88v161.78h-61.4v-341.1Z"/><path class="cls-2" d="M981.7,841.88v-212.46c0-43.86,32.16-73.58,79.91-73.58s79.91,29.72,79.91,73.58v43.86h-61.4v-43.37c0-11.21-7.31-18.03-18.52-18.03s-18.52,6.82-18.52,18.03v204.66c0,11.21,7.8,18.03,19,18.03s19.49-6.82,19.49-18.03v-79.43h-19.98v-50.68h79.91v198.33h-41.91v-18.03l.97-5.85h-5.36l-1.46,5.85c-7.8,15.59-25.34,23.88-47.27,23.88-38.98,0-64.81-26.8-64.81-66.76Z"/></svg>