<?xml version="1.0" encoding="UTF-8"?>
<svg width="237px" height="57px" viewBox="0 0 237 57" version="1.1" xmlns="http://www.w3.org/2000/svg" xmlns:xlink="http://www.w3.org/1999/xlink">
    <title>2016_RGB_Full_HORIZ_Regist</title>
    <defs>
        <filter id="filter-1">
            <feColorMatrix in="SourceGraphic" type="matrix" values="0 0 0 0 1.000000 0 0 0 0 1.000000 0 0 0 0 1.000000 0 0 0 1.000000 0"></feColorMatrix>
        </filter>
    </defs>
    <g id="Symbols" stroke="none" stroke-width="1" fill="none" fill-rule="evenodd">
        <g id="2016_RGB_Full_HORIZ_Regist" transform="translate(-71.000000, -80.000000)" filter="url(#filter-1)">
            <g transform="translate(71.000000, 80.000000)">
                <path d="M234.931987,18.6090535 L234.931987,18.6090535 C235.298671,18.4503486 235.532184,18.087254 235.522837,17.6903292 C235.522837,17.1505447 235.081949,16.712963 234.538087,16.712963 L233.346538,16.712963 L233.346538,19.7134774 L233.868456,19.7134774 L233.868456,18.7361111 L234.390374,18.7361111 L235.000919,19.7134774 L235.611465,19.7134774 L234.931987,18.6090535 Z M234.991073,17.7098765 C234.991533,17.9741111 234.784162,18.1927905 234.518392,18.2083333 L233.848761,18.2083333 L233.848761,17.2309671 L234.518392,17.2309671 C234.776738,17.2458946 234.981361,17.4532143 234.991073,17.7098765 L234.991073,17.7098765 Z M219.963775,41.3230453 C213.661371,41.3230453 208.727769,37.30607 208.727769,32.1846708 L208.727769,24.9326132 C208.654511,22.3888648 209.739639,19.9476858 211.682022,18.2865226 C213.700761,16.5565844 216.556538,15.6769547 220.180421,15.6769547 C224.424696,15.6769547 228.058427,17.4557613 229.968843,20.4367284 L230.303658,20.9547325 L225.783652,23.3492798 L225.47838,22.9290123 C224.160887,21.4025154 222.202588,20.5716023 220.180421,20.68107 C216.005077,20.68107 213.878016,22.186214 213.878016,24.9326132 L213.878016,32.1944444 C213.878016,34.4228395 216.615623,36.3091564 219.973623,36.3091564 C221.634283,36.3475997 223.267978,35.8877365 224.661037,34.9897119 C225.550205,34.4124577 226.081166,33.4248319 226.06923,32.3703704 L226.06923,31.3930041 L219.894843,31.3930041 L219.894843,26.5257202 L231.180086,26.5257202 L231.180086,32.3899177 C231.180086,37.6481481 226.5813,41.3230453 219.963775,41.3230453 Z M71.5125996,28.3533951 C69.8292122,27.1528368 67.8930756,26.3474283 65.8502828,25.9979424 L64.6882769,25.7829218 C62.6695378,25.3822016 59.6168105,24.8055556 59.0161126,23.3786008 C58.7575892,22.7519368 58.9750394,22.031181 59.5380305,21.6486626 C60.6049855,20.9047351 61.9023334,20.5586009 63.2013033,20.6712963 C64.2288768,20.6841815 65.2496571,20.8387818 66.2343356,21.1306584 C67.3843895,21.5399937 68.4227564,22.2092017 69.2673679,23.0853909 L69.5627931,23.4176955 L74.1418841,21.0133745 L73.7282888,20.4465021 C72.1863471,18.4980067 70.0901275,17.0542552 67.7114617,16.3024691 C66.209922,15.8763337 64.6546587,15.6656931 63.0929807,15.6769547 C60.7275647,15.5931155 58.3912882,16.2162176 56.386828,17.465535 C54.6782718,18.656279 53.654846,20.5931236 53.6393735,22.6651235 L53.6393735,22.7530864 C53.622889,23.0330259 53.622889,23.3136819 53.6393735,23.5936214 C53.6700367,23.8767044 53.7193802,24.1574858 53.7870861,24.4341564 C53.8771641,24.7400718 53.9856822,25.0403386 54.1120538,25.3333333 C55.7467401,29.2427984 60.286441,30.1028807 63.5952036,30.7674897 L63.8807813,30.8261317 L64.6882769,30.9825103 C67.425884,31.5787037 68.78484,32.5072016 68.7356025,33.7484568 C68.6979217,34.237362 68.4764852,34.6943564 68.1152095,35.0288066 C67.2289338,35.8986626 65.8601303,36.3091564 63.9103238,36.3091564 L63.8413912,36.3091564 C60.4341536,36.3091564 58.0609043,34.8822016 57.2337137,33.5432099 C57.0958486,33.3281893 56.948136,33.0643004 56.948136,33.0643004 L52.4379775,35.4295267 C52.5130879,35.6181381 52.601951,35.8010645 52.7038602,35.9768519 C54.2006814,38.4886831 57.8639542,41.2644033 63.7724587,41.3230453 L63.9300188,41.3230453 C66.8713883,41.4275801 69.7420268,40.4137857 71.9557374,38.4886831 C73.3181772,37.2221936 74.0946984,35.4545371 74.1024941,33.6018519 C74.1282059,31.5433781 73.1668845,29.5952471 71.5125996,28.3533951 L71.5125996,28.3533951 Z M139.598267,32.6831276 C142.740622,31.1826504 144.733253,28.0221516 144.71897,24.561214 C144.714345,22.2786148 143.783131,20.0941703 142.135721,18.5014152 C140.48831,16.9086601 138.263713,16.0419933 135.964536,16.0972222 L124.551275,16.0972222 L124.551275,40.9320988 L129.750759,40.9320988 L129.750759,33.4650206 L133.788237,33.4650206 L139.549029,40.9223251 L146.038536,40.9223251 L139.598267,32.6831276 Z M135.974384,28.587963 L129.750759,28.587963 L129.750759,20.9938272 L136.043316,20.9938272 C138.080856,21.0964588 139.679836,22.7660323 139.679836,24.7908951 C139.679836,26.8157578 138.080856,28.4853313 136.043316,28.587963 L135.974384,28.587963 Z M176.782455,40.9320988 L176.782455,16.0972222 L171.642056,16.0972222 L171.642056,40.9320988 L176.782455,40.9320988 Z M89.5827759,40.9320988 L89.5827759,20.8960905 L97.1555092,20.8960905 L97.1555092,16.0972222 L76.8696437,16.0972222 L76.8696437,20.8960905 L84.4522245,20.8960905 L84.4522245,40.9320988 L89.5827759,40.9320988 Z M120.041117,40.9320988 L120.041117,36.1039095 L106.402319,36.1039095 L106.402319,30.933642 L116.643727,30.933642 L116.643727,26.1054527 L106.402319,26.1054527 L106.402319,20.8960905 L120.041117,20.8960905 L120.041117,16.0972222 L101.26192,16.0972222 L101.26192,40.9320988 L120.041117,40.9320988 Z M167.378085,40.9320988 L167.378085,36.1039095 L154.901293,36.1039095 L154.901293,16.0972222 L149.760894,16.0972222 L149.760894,40.9320988 L167.378085,40.9320988 Z M204.562274,40.9320988 L204.562274,16.0972222 L199.421875,16.0972222 L199.421875,32.4485597 L186.79737,16.0972222 L181.765294,16.0972222 L181.765294,40.9320988 L186.866303,40.9320988 L186.866303,24.6100823 L199.461265,40.9320988 L204.562274,40.9320988 Z M26.4307102,0 L11.3837187,25.8806584 L0,25.8806584 L18.0997188,57 L33.1565578,31.1291152 L44.5402765,31.1291152 L26.4307102,0 Z M18.0997188,46.4835391 L9.17787701,31.1388889 L27.0314081,31.1388889 L18.0997188,46.4835391 Z M17.4891734,25.8611111 L26.4110152,10.5262346 L35.3427045,25.8611111 L17.4891734,25.8611111 Z M234.341136,20.8960905 C233.264847,20.8960905 232.294725,20.2520759 231.883772,19.2647903 C231.47282,18.2775047 231.702109,17.1417088 232.464571,16.3877667 C233.227034,15.6338247 234.372254,15.4104714 235.365467,15.8220025 C236.358681,16.2335337 237.00395,17.1987639 236.999982,18.2669753 C236.994539,19.7205751 235.805729,20.8960905 234.341136,20.8960905 Z M234.341136,16.0092593 C233.05762,16.0092593 232.017125,17.0419523 232.017125,18.3158436 C232.017125,19.589735 233.05762,20.622428 234.341136,20.622428 C235.624653,20.622428 236.665148,19.589735 236.665148,18.3158436 C236.68379,17.6923334 236.447194,17.0879135 236.009321,16.640433 C235.571447,16.1929525 234.969634,15.9405692 234.341136,15.9408434 L234.341136,16.0092593 Z" id="Shape" fill="#130C0E" fill-rule="nonzero"></path>
            </g>
        </g>
    </g>
</svg>